<svg width="502" height="154" viewBox="0 0 502 154" fill="none" xmlns="http://www.w3.org/2000/svg">
<path d="M9.6 116H31.232V62.88L61.568 116H83.072L31.232 26.4H9.6V116ZM74.112 72.608L84.992 90.144L100.608 62.88V116H122.24V26.4H100.608L74.112 72.608ZM164.39 82.336L188.07 116H215.078L187.558 80.544C199.59 76.32 205.606 65.312 205.606 54.432C205.606 40.352 195.878 26.4 176.166 26.4H122.15V44.448H172.454C180.646 44.448 184.742 49.44 184.742 54.432C184.742 59.424 180.646 64.416 172.454 64.416H122.15V82.336H164.39Z" fill="#38BDF8"/>
<path d="M74 72.208L85 90L100.496 63V116H122.128V26.5H100.5L74 72.208Z" fill="#0284C7"/>
<path d="M261.25 115V96.25H259.35L251.875 105.225L244.4 96.25H242.5V115H244.2V98.8H244.3L251.075 107.025H252.675L259.45 98.8H259.55V115H261.25ZM277.428 115H279.128V100.525H277.428V103.45H277.378C276.728 102.5 275.903 101.7 274.853 101.05C273.803 100.425 272.628 100.1 271.303 100.1C270.278 100.1 269.303 100.3 268.378 100.7C267.428 101.1 266.628 101.65 265.928 102.35C265.228 103.05 264.703 103.875 264.328 104.825C263.928 105.775 263.753 106.75 263.753 107.75C263.753 108.8 263.928 109.775 264.328 110.725C264.703 111.675 265.228 112.475 265.928 113.175C266.628 113.875 267.428 114.425 268.378 114.825C269.303 115.225 270.278 115.425 271.303 115.425C272.628 115.425 273.803 115.125 274.853 114.475C275.903 113.825 276.728 113.025 277.378 112.075H277.428V115ZM277.428 107.75C277.428 108.55 277.253 109.325 276.953 110.075C276.653 110.825 276.203 111.45 275.653 112C275.103 112.55 274.453 113 273.728 113.3C273.003 113.625 272.253 113.775 271.453 113.775C270.653 113.775 269.878 113.625 269.153 113.325C268.428 113.025 267.803 112.575 267.253 112.025C266.703 111.475 266.253 110.825 265.953 110.075C265.653 109.325 265.503 108.55 265.503 107.75C265.503 106.95 265.678 106.15 266.028 105.325C266.378 104.5 266.878 103.8 267.553 103.225C268.228 102.675 268.903 102.275 269.553 102.075C270.203 101.875 270.853 101.75 271.453 101.75C272.253 101.75 273.003 101.925 273.728 102.225C274.453 102.525 275.103 102.975 275.653 103.525C276.203 104.075 276.653 104.725 276.953 105.45C277.253 106.2 277.428 106.95 277.428 107.75ZM288.099 100.1C287.674 100.125 287.199 100.25 286.649 100.45C286.099 100.65 285.549 101 285.024 101.45C284.499 101.9 284.124 102.375 283.874 102.825H283.824V100.525H282.124V115H283.824V106.075C283.849 105.4 284.049 104.725 284.449 104.075C284.824 103.425 285.349 102.9 286.024 102.55C286.699 102.2 287.399 102 288.099 101.95V100.1ZM292.96 108.95L298.985 115H301.41L294.16 107.75L301.41 100.525H298.985L291.685 107.825V96.25H289.985V115H291.685V110.25L292.96 108.95ZM317.041 107.75C317.041 106.75 316.841 105.775 316.441 104.825C316.041 103.875 315.491 103.05 314.791 102.35C314.091 101.65 313.266 101.1 312.316 100.7C311.366 100.3 310.391 100.1 309.391 100.1C308.366 100.1 307.391 100.3 306.466 100.7C305.516 101.1 304.716 101.65 304.016 102.35C303.316 103.05 302.766 103.875 302.366 104.825C301.966 105.775 301.766 106.75 301.766 107.75C301.766 108.775 301.991 109.825 302.441 110.875C302.891 111.925 303.541 112.825 304.416 113.55C305.266 114.275 306.141 114.775 306.991 115.025C307.841 115.3 308.641 115.425 309.391 115.425C310.916 115.425 312.316 115.025 313.566 114.175C314.816 113.325 315.741 112.225 316.341 110.875H314.416C314.016 111.5 313.516 112.05 312.916 112.525C312.316 113 311.691 113.325 311.066 113.5C310.441 113.7 309.891 113.775 309.391 113.775C308.666 113.775 307.966 113.65 307.291 113.375C306.616 113.125 306.016 112.75 305.491 112.275C304.966 111.8 304.541 111.25 304.191 110.6C303.841 109.975 303.641 109.3 303.541 108.6H316.966L317.041 107.75ZM303.541 106.9C303.641 106.2 303.841 105.55 304.191 104.9C304.541 104.275 304.966 103.725 305.491 103.25C306.016 102.775 306.616 102.4 307.291 102.15C307.966 101.9 308.666 101.75 309.391 101.75C310.091 101.75 310.791 101.9 311.466 102.15C312.141 102.4 312.741 102.775 313.291 103.25C313.816 103.725 314.241 104.275 314.591 104.9C314.941 105.55 315.166 106.2 315.266 106.9H303.541ZM321.951 102.225H324.951V100.525H321.951V97.25H320.251V100.525H318.551V102.225H320.251V111.6C320.251 112.125 320.351 112.65 320.576 113.15C320.776 113.675 321.176 114.125 321.751 114.475C322.326 114.825 322.951 115 323.651 115H324.951V113.3H323.651C323.151 113.3 322.751 113.175 322.426 112.875C322.101 112.575 321.951 112.15 321.951 111.6V102.225ZM347.762 102.225C347.762 101.425 347.587 100.675 347.287 99.925C346.987 99.2 346.562 98.55 346.012 98C345.462 97.45 344.812 97.025 344.087 96.725C343.362 96.425 342.612 96.25 341.812 96.25H333.687V115H335.387V108.2H342.112L345.562 115H347.437L343.862 107.825C344.562 107.575 345.162 107.2 345.687 106.75C346.187 106.3 346.612 105.8 346.912 105.275C347.212 104.775 347.437 104.25 347.562 103.725C347.687 103.2 347.762 102.7 347.762 102.225ZM346.012 102.225C346.012 102.8 345.887 103.35 345.687 103.875C345.462 104.4 345.162 104.85 344.787 105.25C344.387 105.65 343.937 105.95 343.437 106.175C342.912 106.4 342.362 106.5 341.812 106.5H335.387V97.95H341.812C342.962 97.95 343.962 98.375 344.787 99.2C345.587 100.05 346.012 101.05 346.012 102.225ZM364.282 107.75C364.282 106.75 364.082 105.775 363.682 104.825C363.282 103.875 362.732 103.05 362.032 102.35C361.332 101.65 360.507 101.1 359.557 100.7C358.607 100.3 357.632 100.1 356.632 100.1C355.607 100.1 354.632 100.3 353.707 100.7C352.757 101.1 351.957 101.65 351.257 102.35C350.557 103.05 350.007 103.875 349.607 104.825C349.207 105.775 349.007 106.75 349.007 107.75C349.007 108.775 349.232 109.825 349.682 110.875C350.132 111.925 350.782 112.825 351.657 113.55C352.507 114.275 353.382 114.775 354.232 115.025C355.082 115.3 355.882 115.425 356.632 115.425C358.157 115.425 359.557 115.025 360.807 114.175C362.057 113.325 362.982 112.225 363.582 110.875H361.657C361.257 111.5 360.757 112.05 360.157 112.525C359.557 113 358.932 113.325 358.307 113.5C357.682 113.7 357.132 113.775 356.632 113.775C355.907 113.775 355.207 113.65 354.532 113.375C353.857 113.125 353.257 112.75 352.732 112.275C352.207 111.8 351.782 111.25 351.432 110.6C351.082 109.975 350.882 109.3 350.782 108.6H364.207L364.282 107.75ZM350.782 106.9C350.882 106.2 351.082 105.55 351.432 104.9C351.782 104.275 352.207 103.725 352.732 103.25C353.257 102.775 353.857 102.4 354.532 102.15C355.207 101.9 355.907 101.75 356.632 101.75C357.332 101.75 358.032 101.9 358.707 102.15C359.382 102.4 359.982 102.775 360.532 103.25C361.057 103.725 361.482 104.275 361.832 104.9C362.182 105.55 362.407 106.2 362.507 106.9H350.782ZM377.442 104.25C377.442 103.05 376.942 102.075 375.967 101.275C374.967 100.5 373.692 100.1 372.117 100.1C371.017 100.1 370.067 100.275 369.267 100.6C368.467 100.925 367.842 101.375 367.417 101.925C366.992 102.5 366.792 103.175 366.792 103.95C366.792 104.55 366.867 105.05 367.017 105.5C367.167 105.95 367.392 106.35 367.692 106.7C367.992 107.05 368.442 107.325 369.017 107.575C369.592 107.825 370.567 108.05 371.942 108.225C373.317 108.425 374.242 108.6 374.717 108.8C375.192 109 375.567 109.275 375.817 109.625C376.067 109.975 376.217 110.4 376.217 110.95C376.217 111.85 375.842 112.55 375.117 113.05C374.392 113.55 373.392 113.775 372.117 113.775C370.867 113.775 369.867 113.5 369.117 112.9C368.367 112.325 368.017 111.575 368.017 110.65H366.292C366.292 111.35 366.442 112.025 366.742 112.675C367.042 113.325 367.517 113.875 368.167 114.3C368.817 114.75 369.467 115.05 370.142 115.2C370.817 115.35 371.467 115.425 372.117 115.425C373.917 115.425 375.342 115.05 376.392 114.25C377.442 113.475 377.967 112.4 377.967 111.025C377.967 110.45 377.892 109.925 377.742 109.475C377.592 109.025 377.342 108.625 377.042 108.275C376.742 107.925 376.292 107.625 375.742 107.375C375.192 107.125 374.242 106.925 372.942 106.725C371.617 106.525 370.767 106.375 370.367 106.25C369.967 106.125 369.642 105.95 369.392 105.75C369.117 105.55 368.917 105.3 368.767 105C368.617 104.7 368.542 104.325 368.542 103.9C368.542 103.6 368.642 103.3 368.842 102.95C369.042 102.6 369.442 102.325 370.017 102.1C370.592 101.875 371.292 101.75 372.117 101.75C372.892 101.75 373.567 101.9 374.167 102.175C374.767 102.45 375.167 102.775 375.392 103.175C375.592 103.575 375.717 103.925 375.717 104.25H377.442ZM395.239 107.75C395.239 106.75 395.039 105.775 394.639 104.825C394.239 103.875 393.689 103.05 392.989 102.35C392.289 101.65 391.464 101.1 390.514 100.7C389.564 100.3 388.589 100.1 387.589 100.1C386.564 100.1 385.589 100.3 384.664 100.7C383.714 101.1 382.914 101.65 382.214 102.35C381.514 103.05 380.964 103.875 380.564 104.825C380.164 105.775 379.964 106.75 379.964 107.75C379.964 108.775 380.189 109.825 380.639 110.875C381.089 111.925 381.739 112.825 382.614 113.55C383.464 114.275 384.339 114.775 385.189 115.025C386.039 115.3 386.839 115.425 387.589 115.425C389.114 115.425 390.514 115.025 391.764 114.175C393.014 113.325 393.939 112.225 394.539 110.875H392.614C392.214 111.5 391.714 112.05 391.114 112.525C390.514 113 389.889 113.325 389.264 113.5C388.639 113.7 388.089 113.775 387.589 113.775C386.864 113.775 386.164 113.65 385.489 113.375C384.814 113.125 384.214 112.75 383.689 112.275C383.164 111.8 382.739 111.25 382.389 110.6C382.039 109.975 381.839 109.3 381.739 108.6H395.164L395.239 107.75ZM381.739 106.9C381.839 106.2 382.039 105.55 382.389 104.9C382.739 104.275 383.164 103.725 383.689 103.25C384.214 102.775 384.814 102.4 385.489 102.15C386.164 101.9 386.864 101.75 387.589 101.75C388.289 101.75 388.989 101.9 389.664 102.15C390.339 102.4 390.939 102.775 391.489 103.25C392.014 103.725 392.439 104.275 392.789 104.9C393.139 105.55 393.364 106.2 393.464 106.9H381.739ZM410.924 115H412.624V100.525H410.924V103.45H410.874C410.224 102.5 409.399 101.7 408.349 101.05C407.299 100.425 406.124 100.1 404.799 100.1C403.774 100.1 402.799 100.3 401.874 100.7C400.924 101.1 400.124 101.65 399.424 102.35C398.724 103.05 398.199 103.875 397.824 104.825C397.424 105.775 397.249 106.75 397.249 107.75C397.249 108.8 397.424 109.775 397.824 110.725C398.199 111.675 398.724 112.475 399.424 113.175C400.124 113.875 400.924 114.425 401.874 114.825C402.799 115.225 403.774 115.425 404.799 115.425C406.124 115.425 407.299 115.125 408.349 114.475C409.399 113.825 410.224 113.025 410.874 112.075H410.924V115ZM410.924 107.75C410.924 108.55 410.749 109.325 410.449 110.075C410.149 110.825 409.699 111.45 409.149 112C408.599 112.55 407.949 113 407.224 113.3C406.499 113.625 405.749 113.775 404.949 113.775C404.149 113.775 403.374 113.625 402.649 113.325C401.924 113.025 401.299 112.575 400.749 112.025C400.199 111.475 399.749 110.825 399.449 110.075C399.149 109.325 398.999 108.55 398.999 107.75C398.999 106.95 399.174 106.15 399.524 105.325C399.874 104.5 400.374 103.8 401.049 103.225C401.724 102.675 402.399 102.275 403.049 102.075C403.699 101.875 404.349 101.75 404.949 101.75C405.749 101.75 406.499 101.925 407.224 102.225C407.949 102.525 408.599 102.975 409.149 103.525C409.699 104.075 410.149 104.725 410.449 105.45C410.749 106.2 410.924 106.95 410.924 107.75ZM421.595 100.1C421.17 100.125 420.695 100.25 420.145 100.45C419.595 100.65 419.045 101 418.52 101.45C417.995 101.9 417.62 102.375 417.37 102.825H417.32V100.525H415.62V115H417.32V106.075C417.345 105.4 417.545 104.725 417.945 104.075C418.32 103.425 418.845 102.9 419.52 102.55C420.195 102.2 420.895 102 421.595 101.95V100.1ZM429.63 115.425C431.28 115.425 432.755 114.95 434.08 114C435.405 113.05 436.33 111.8 436.88 110.3H435.055C434.805 110.775 434.455 111.275 433.98 111.825C433.505 112.375 432.88 112.85 432.08 113.225C431.28 113.6 430.48 113.775 429.63 113.775C428.83 113.775 428.08 113.625 427.355 113.3C426.63 113 426.03 112.6 425.555 112.1C425.08 111.625 424.705 111.125 424.43 110.6C424.155 110.1 423.98 109.575 423.88 109.075C423.78 108.575 423.73 108.15 423.73 107.75C423.73 106.95 423.88 106.2 424.18 105.45C424.48 104.725 424.905 104.075 425.455 103.525C426.005 102.975 426.63 102.525 427.355 102.225C428.08 101.925 428.83 101.75 429.63 101.75C430.78 101.75 431.855 102.075 432.83 102.7C433.805 103.35 434.555 104.175 435.055 105.2H436.88C436.33 103.7 435.405 102.475 434.08 101.525C432.755 100.575 431.28 100.1 429.63 100.1C428.605 100.1 427.63 100.3 426.68 100.7C425.73 101.1 424.93 101.65 424.23 102.35C423.53 103.05 422.98 103.875 422.58 104.825C422.18 105.775 421.98 106.75 421.98 107.75C421.98 108.775 422.205 109.825 422.655 110.875C423.105 111.925 423.755 112.825 424.63 113.55C425.48 114.275 426.355 114.775 427.205 115.025C428.055 115.3 428.88 115.425 429.63 115.425ZM439.277 115H440.977V106.075C440.977 105.525 441.127 104.975 441.427 104.425C441.702 103.9 442.077 103.425 442.527 103.025C442.977 102.625 443.502 102.325 444.102 102.1C444.677 101.875 445.252 101.75 445.852 101.75C447.052 101.75 448.052 102.15 448.802 102.9C449.552 103.675 449.927 104.675 449.927 105.875V115H451.627V105.875C451.627 104.825 451.452 103.925 451.102 103.175C450.752 102.425 450.302 101.8 449.752 101.35C449.202 100.9 448.602 100.575 447.952 100.375C447.302 100.2 446.652 100.1 446.002 100.1C445.477 100.1 444.877 100.225 444.227 100.425C443.552 100.625 442.902 100.975 442.302 101.475C441.702 101.975 441.277 102.475 441.027 102.975H440.977V96.25H439.277V115Z" fill="#0284C7"/>
<path d="M26.04 147V145.64H22.52L22.48 145.58C23.12 145.18 23.72 144.64 24.28 144C24.84 143.36 25.28 142.62 25.58 141.78C25.88 140.96 26.04 140.14 26.04 139.34C26.04 138.32 25.84 137.34 25.44 136.4C25.04 135.46 24.48 134.64 23.78 133.92C23.06 133.22 22.24 132.66 21.3 132.26C20.36 131.86 19.38 131.66 18.36 131.66C17.32 131.66 16.34 131.86 15.4 132.26C14.46 132.66 13.64 133.22 12.94 133.92C12.22 134.64 11.68 135.46 11.28 136.4C10.88 137.34 10.7 138.32 10.7 139.34C10.7 140.38 10.88 141.36 11.28 142.3C11.68 143.24 12.22 144.06 12.94 144.76C13.64 145.48 14.46 146.02 15.4 146.42C16.34 146.82 17.32 147 18.36 147H26.04ZM12.1 139.34C12.1 138.5 12.26 137.7 12.58 136.92C12.9 136.14 13.34 135.46 13.92 134.86C14.48 134.28 15.16 133.82 15.92 133.48C16.68 133.16 17.5 132.98 18.34 132.98C19.18 132.98 19.98 133.16 20.76 133.48C21.52 133.82 22.2 134.28 22.78 134.86C23.36 135.46 23.82 136.14 24.14 136.92C24.46 137.7 24.64 138.5 24.64 139.34C24.64 140.18 24.46 141 24.14 141.76C23.82 142.54 23.36 143.22 22.78 143.8C22.2 144.38 21.52 144.84 20.76 145.16C19.98 145.48 19.18 145.64 18.34 145.64C17.5 145.64 16.68 145.48 15.92 145.16C15.16 144.84 14.48 144.38 13.92 143.8C13.34 143.22 12.9 142.54 12.58 141.76C12.26 141 12.1 140.18 12.1 139.34ZM58.6136 135.42H57.2536V142.56C57.2336 143.02 57.1136 143.46 56.8936 143.88C56.6536 144.32 56.3536 144.68 55.9936 145C55.6336 145.32 55.2136 145.58 54.7536 145.76C54.2736 145.94 53.8136 146.02 53.3536 146.02C52.3736 146.02 51.5936 145.72 50.9936 145.1C50.3936 144.5 50.0936 143.7 50.0936 142.72V135.42H48.7336V142.72C48.7336 143.56 48.8736 144.3 49.1536 144.9C49.4336 145.5 49.7736 146 50.2136 146.36C50.6536 146.72 51.1336 146.98 51.6536 147.12C52.1736 147.28 52.7136 147.34 53.2336 147.34C53.6336 147.34 54.1136 147.26 54.6536 147.1C55.1736 146.94 55.6936 146.66 56.1736 146.26C56.6536 145.86 57.0136 145.46 57.2136 145.04H57.2536V147H58.6136V135.42ZM92.1587 147H93.5187V135.42H92.1587V137.76H92.1187C91.5987 137 90.9387 136.36 90.0987 135.84C89.2587 135.34 88.3187 135.08 87.2587 135.08C86.4387 135.08 85.6587 135.24 84.9187 135.56C84.1587 135.88 83.5187 136.32 82.9587 136.88C82.3987 137.44 81.9787 138.1 81.6787 138.86C81.3587 139.62 81.2187 140.4 81.2187 141.2C81.2187 142.04 81.3587 142.82 81.6787 143.58C81.9787 144.34 82.3987 144.98 82.9587 145.54C83.5187 146.1 84.1587 146.54 84.9187 146.86C85.6587 147.18 86.4387 147.34 87.2587 147.34C88.3187 147.34 89.2587 147.1 90.0987 146.58C90.9387 146.06 91.5987 145.42 92.1187 144.66H92.1587V147ZM92.1587 141.2C92.1587 141.84 92.0187 142.46 91.7787 143.06C91.5387 143.66 91.1787 144.16 90.7387 144.6C90.2987 145.04 89.7787 145.4 89.1987 145.64C88.6187 145.9 88.0187 146.02 87.3787 146.02C86.7387 146.02 86.1187 145.9 85.5387 145.66C84.9587 145.42 84.4587 145.06 84.0187 144.62C83.5787 144.18 83.2187 143.66 82.9787 143.06C82.7387 142.46 82.6187 141.84 82.6187 141.2C82.6187 140.56 82.7587 139.92 83.0387 139.26C83.3187 138.6 83.7187 138.04 84.2587 137.58C84.7987 137.14 85.3387 136.82 85.8587 136.66C86.3787 136.5 86.8987 136.4 87.3787 136.4C88.0187 136.4 88.6187 136.54 89.1987 136.78C89.7787 137.02 90.2987 137.38 90.7387 137.82C91.1787 138.26 91.5387 138.78 91.7787 139.36C92.0187 139.96 92.1587 140.56 92.1587 141.2ZM116.516 147H117.876V132H116.516V147ZM140.885 135.42V147H142.245V135.42H140.885ZM140.665 132.56C140.665 132.8 140.745 133.02 140.925 133.2C141.105 133.38 141.325 133.46 141.565 133.46C141.805 133.46 142.005 133.38 142.185 133.2C142.365 133.02 142.465 132.8 142.465 132.56C142.465 132.32 142.365 132.12 142.185 131.94C142.005 131.76 141.805 131.66 141.565 131.66C141.325 131.66 141.105 131.76 140.925 131.94C140.745 132.12 140.665 132.32 140.665 132.56ZM167.175 136.78H169.575V135.42H167.175V132.8H165.815V135.42H164.455V136.78H165.815V144.28C165.815 144.7 165.895 145.12 166.075 145.52C166.235 145.94 166.555 146.3 167.015 146.58C167.475 146.86 167.975 147 168.535 147H169.575V145.64H168.535C168.135 145.64 167.815 145.54 167.555 145.3C167.295 145.06 167.175 144.72 167.175 144.28V136.78ZM195.848 146.86L194.348 150.42H195.848L202.088 135.42H200.608L196.568 145.12L192.548 135.42H191.068L195.848 146.86ZM252.6 142.24L255.74 134.02H255.78L258.92 142.24H252.6ZM262.24 147L256.44 132H255.08L249.28 147H250.74L252.06 143.58H259.44L260.76 147H262.24ZM292.854 138.4C292.854 137.44 292.454 136.66 291.674 136.02C290.874 135.4 289.854 135.08 288.594 135.08C287.714 135.08 286.954 135.22 286.314 135.48C285.674 135.74 285.174 136.1 284.834 136.54C284.494 137 284.334 137.54 284.334 138.16C284.334 138.64 284.394 139.04 284.514 139.4C284.634 139.76 284.814 140.08 285.054 140.36C285.294 140.64 285.654 140.86 286.114 141.06C286.574 141.26 287.354 141.44 288.454 141.58C289.554 141.74 290.294 141.88 290.674 142.04C291.054 142.2 291.354 142.42 291.554 142.7C291.754 142.98 291.874 143.32 291.874 143.76C291.874 144.48 291.574 145.04 290.994 145.44C290.414 145.84 289.614 146.02 288.594 146.02C287.594 146.02 286.794 145.8 286.194 145.32C285.594 144.86 285.314 144.26 285.314 143.52H283.934C283.934 144.08 284.054 144.62 284.294 145.14C284.534 145.66 284.914 146.1 285.434 146.44C285.954 146.8 286.474 147.04 287.014 147.16C287.554 147.28 288.074 147.34 288.594 147.34C290.034 147.34 291.174 147.04 292.014 146.4C292.854 145.78 293.274 144.92 293.274 143.82C293.274 143.36 293.214 142.94 293.094 142.58C292.974 142.22 292.774 141.9 292.534 141.62C292.294 141.34 291.934 141.1 291.494 140.9C291.054 140.7 290.294 140.54 289.254 140.38C288.194 140.22 287.514 140.1 287.194 140C286.874 139.9 286.614 139.76 286.414 139.6C286.194 139.44 286.034 139.24 285.914 139C285.794 138.76 285.734 138.46 285.734 138.12C285.734 137.88 285.814 137.64 285.974 137.36C286.134 137.08 286.454 136.86 286.914 136.68C287.374 136.5 287.934 136.4 288.594 136.4C289.214 136.4 289.754 136.52 290.234 136.74C290.714 136.96 291.034 137.22 291.214 137.54C291.374 137.86 291.474 138.14 291.474 138.4H292.854ZM324.392 138.4C324.392 137.44 323.992 136.66 323.212 136.02C322.412 135.4 321.392 135.08 320.132 135.08C319.252 135.08 318.492 135.22 317.852 135.48C317.212 135.74 316.712 136.1 316.372 136.54C316.032 137 315.872 137.54 315.872 138.16C315.872 138.64 315.932 139.04 316.052 139.4C316.172 139.76 316.352 140.08 316.592 140.36C316.832 140.64 317.192 140.86 317.652 141.06C318.112 141.26 318.892 141.44 319.992 141.58C321.092 141.74 321.832 141.88 322.212 142.04C322.592 142.2 322.892 142.42 323.092 142.7C323.292 142.98 323.412 143.32 323.412 143.76C323.412 144.48 323.112 145.04 322.532 145.44C321.952 145.84 321.152 146.02 320.132 146.02C319.132 146.02 318.332 145.8 317.732 145.32C317.132 144.86 316.852 144.26 316.852 143.52H315.472C315.472 144.08 315.592 144.62 315.832 145.14C316.072 145.66 316.452 146.1 316.972 146.44C317.492 146.8 318.012 147.04 318.552 147.16C319.092 147.28 319.612 147.34 320.132 147.34C321.572 147.34 322.712 147.04 323.552 146.4C324.392 145.78 324.812 144.92 324.812 143.82C324.812 143.36 324.752 142.94 324.632 142.58C324.512 142.22 324.312 141.9 324.072 141.62C323.832 141.34 323.472 141.1 323.032 140.9C322.592 140.7 321.832 140.54 320.792 140.38C319.732 140.22 319.052 140.1 318.732 140C318.412 139.9 318.152 139.76 317.952 139.6C317.732 139.44 317.572 139.24 317.452 139C317.332 138.76 317.272 138.46 317.272 138.12C317.272 137.88 317.352 137.64 317.512 137.36C317.672 137.08 317.992 136.86 318.452 136.68C318.912 136.5 319.472 136.4 320.132 136.4C320.752 136.4 321.292 136.52 321.772 136.74C322.252 136.96 322.572 137.22 322.752 137.54C322.912 137.86 323.012 138.14 323.012 138.4H324.392ZM357.289 135.42H355.929V142.56C355.909 143.02 355.789 143.46 355.569 143.88C355.329 144.32 355.029 144.68 354.669 145C354.309 145.32 353.889 145.58 353.429 145.76C352.949 145.94 352.489 146.02 352.029 146.02C351.049 146.02 350.269 145.72 349.669 145.1C349.069 144.5 348.769 143.7 348.769 142.72V135.42H347.409V142.72C347.409 143.56 347.549 144.3 347.829 144.9C348.109 145.5 348.449 146 348.889 146.36C349.329 146.72 349.809 146.98 350.329 147.12C350.849 147.28 351.389 147.34 351.909 147.34C352.309 147.34 352.789 147.26 353.329 147.1C353.849 146.94 354.369 146.66 354.849 146.26C355.329 145.86 355.689 145.46 355.889 145.04H355.929V147H357.289V135.42ZM385.075 135.08C384.735 135.1 384.355 135.2 383.915 135.36C383.475 135.52 383.035 135.8 382.615 136.16C382.195 136.52 381.895 136.9 381.695 137.26H381.655V135.42H380.295V147H381.655V139.86C381.675 139.32 381.835 138.78 382.155 138.26C382.455 137.74 382.875 137.32 383.415 137.04C383.955 136.76 384.515 136.6 385.075 136.56V135.08ZM418.203 141.2C418.203 140.4 418.043 139.62 417.723 138.86C417.403 138.1 416.963 137.44 416.403 136.88C415.843 136.32 415.183 135.88 414.423 135.56C413.663 135.24 412.883 135.08 412.083 135.08C411.263 135.08 410.483 135.24 409.743 135.56C408.983 135.88 408.343 136.32 407.783 136.88C407.223 137.44 406.783 138.1 406.463 138.86C406.143 139.62 405.983 140.4 405.983 141.2C405.983 142.02 406.163 142.86 406.523 143.7C406.883 144.54 407.403 145.26 408.103 145.84C408.783 146.42 409.483 146.82 410.163 147.02C410.843 147.24 411.483 147.34 412.083 147.34C413.303 147.34 414.423 147.02 415.423 146.34C416.423 145.66 417.163 144.78 417.643 143.7H416.103C415.783 144.2 415.383 144.64 414.903 145.02C414.423 145.4 413.923 145.66 413.423 145.8C412.923 145.96 412.483 146.02 412.083 146.02C411.503 146.02 410.943 145.92 410.403 145.7C409.863 145.5 409.383 145.2 408.963 144.82C408.543 144.44 408.203 144 407.923 143.48C407.643 142.98 407.483 142.44 407.403 141.88H418.143L418.203 141.2ZM407.403 140.52C407.483 139.96 407.643 139.44 407.923 138.92C408.203 138.42 408.543 137.98 408.963 137.6C409.383 137.22 409.863 136.92 410.403 136.72C410.943 136.52 411.503 136.4 412.083 136.4C412.643 136.4 413.203 136.52 413.743 136.72C414.283 136.92 414.763 137.22 415.203 137.6C415.623 137.98 415.963 138.42 416.243 138.92C416.523 139.44 416.703 139.96 416.783 140.52H407.403ZM451.351 147H452.711V132H451.351V137.76H451.311C450.791 137 450.131 136.36 449.291 135.84C448.451 135.34 447.511 135.08 446.451 135.08C445.631 135.08 444.851 135.24 444.111 135.56C443.351 135.88 442.711 136.32 442.151 136.88C441.591 137.44 441.171 138.1 440.871 138.86C440.551 139.62 440.411 140.4 440.411 141.2C440.411 142.04 440.551 142.82 440.871 143.58C441.171 144.34 441.591 144.98 442.151 145.54C442.711 146.1 443.351 146.54 444.111 146.86C444.851 147.18 445.631 147.34 446.451 147.34C447.511 147.34 448.451 147.1 449.291 146.58C450.131 146.06 450.791 145.42 451.311 144.66H451.351V147ZM451.351 141.2C451.351 141.84 451.211 142.46 450.971 143.06C450.731 143.66 450.371 144.16 449.931 144.6C449.491 145.04 448.971 145.4 448.391 145.64C447.811 145.9 447.211 146.02 446.571 146.02C445.931 146.02 445.311 145.9 444.731 145.66C444.151 145.42 443.651 145.06 443.211 144.62C442.771 144.18 442.411 143.66 442.171 143.06C441.931 142.46 441.811 141.84 441.811 141.2C441.811 140.56 441.951 139.92 442.231 139.26C442.511 138.6 442.911 138.04 443.451 137.58C443.991 137.14 444.531 136.82 445.051 136.66C445.571 136.5 446.091 136.4 446.571 136.4C447.211 136.4 447.811 136.54 448.391 136.78C448.971 137.02 449.491 137.38 449.931 137.82C450.371 138.26 450.731 138.78 450.971 139.36C451.211 139.96 451.351 140.56 451.351 141.2Z" fill="black"/>
<path d="M285.96 74H291.4V27.68H285.96V37.04H285.8C283.72 34 281.08 31.44 277.72 29.36C274.36 27.36 270.6 26.32 266.36 26.32C263.08 26.32 259.96 26.96 257 28.24C253.96 29.52 251.4 31.28 249.16 33.52C246.92 35.76 245.24 38.4 244.04 41.44C242.76 44.48 242.2 47.6 242.2 50.8C242.2 54.16 242.76 57.28 244.04 60.32C245.24 63.36 246.92 65.92 249.16 68.16C251.4 70.4 253.96 72.16 257 73.44C259.96 74.72 263.08 75.36 266.36 75.36C270.6 75.36 274.36 74.4 277.72 72.32C281.08 70.24 283.72 67.68 285.8 64.64H285.96V74ZM285.96 50.8C285.96 53.36 285.4 55.84 284.44 58.24C283.48 60.64 282.04 62.64 280.28 64.4C278.52 66.16 276.44 67.6 274.12 68.56C271.8 69.6 269.4 70.08 266.84 70.08C264.28 70.08 261.8 69.6 259.48 68.64C257.16 67.68 255.16 66.24 253.4 64.48C251.64 62.72 250.2 60.64 249.24 58.24C248.28 55.84 247.8 53.36 247.8 50.8C247.8 48.24 248.36 45.68 249.48 43.04C250.6 40.4 252.2 38.16 254.36 36.32C256.52 34.56 258.68 33.28 260.76 32.64C262.84 32 264.92 31.6 266.84 31.6C269.4 31.6 271.8 32.16 274.12 33.12C276.44 34.08 278.52 35.52 280.28 37.28C282.04 39.04 283.48 41.12 284.44 43.44C285.4 45.84 285.96 48.24 285.96 50.8ZM324.028 70.08C321.468 70.08 318.988 69.6 316.668 68.56C314.348 67.6 312.348 66.16 310.588 64.4C308.828 62.64 307.388 60.64 306.428 58.24C305.468 55.84 304.988 53.36 304.988 50.8C304.988 48.24 305.548 45.68 306.668 43.04C307.788 40.4 309.388 38.16 311.548 36.32C313.708 34.56 315.868 33.28 318.028 32.64C320.108 32 322.108 31.6 324.028 31.6C326.588 31.6 328.988 32.16 331.388 33.12C333.708 34.08 335.708 35.52 337.468 37.28C339.228 39.04 340.588 41.12 341.548 43.44C342.508 45.84 343.068 48.24 343.068 50.8C343.068 53.36 342.508 55.84 341.548 58.24C340.588 60.64 339.228 62.72 337.468 64.48C335.708 66.24 333.708 67.68 331.388 68.64C328.988 69.6 326.588 70.08 324.028 70.08ZM324.028 75.36C327.308 75.36 330.428 74.72 333.468 73.44C336.508 72.16 339.148 70.4 341.387 68.16C343.628 65.92 345.468 63.36 346.748 60.32C348.028 57.28 348.668 54.16 348.668 50.8C348.668 47.6 348.028 44.48 346.748 41.44C345.468 38.4 343.628 35.76 341.387 33.52C339.148 31.28 336.508 29.52 333.468 28.24C330.428 26.96 327.308 26.32 324.028 26.32C320.748 26.32 317.628 26.96 314.588 28.24C311.548 29.52 309.068 31.2 307.068 33.12C305.068 35.04 303.468 37.12 302.348 39.2C301.228 41.28 300.428 43.36 300.028 45.44C299.548 47.52 299.388 49.28 299.388 50.8C299.388 55.44 300.508 59.6 302.908 63.44C305.228 67.28 308.268 70.24 312.108 72.32C315.868 74.4 319.868 75.36 324.028 75.36ZM356.691 74H362.131V45.44C362.131 43.68 362.611 41.92 363.571 40.16C364.451 38.48 365.651 36.96 367.091 35.68C368.531 34.4 370.211 33.44 372.131 32.72C373.971 32 375.811 31.6 377.731 31.6C381.571 31.6 384.771 32.88 387.171 35.28C389.571 37.76 390.771 40.96 390.771 44.8V74H396.211V44.8C396.211 41.44 395.651 38.56 394.531 36.16C393.411 33.76 391.971 31.76 390.211 30.32C388.451 28.88 386.531 27.84 384.451 27.2C382.371 26.64 380.291 26.32 378.211 26.32C376.531 26.32 374.611 26.72 372.531 27.36C370.371 28 368.291 29.12 366.371 30.72C364.451 32.32 363.091 33.92 362.291 35.52H362.131V27.68H356.691V74ZM453.111 50.8C453.111 47.6 452.471 44.48 451.191 41.44C449.911 38.4 448.151 35.76 445.911 33.52C443.671 31.28 441.031 29.52 437.991 28.24C434.951 26.96 431.831 26.32 428.631 26.32C425.351 26.32 422.231 26.96 419.271 28.24C416.231 29.52 413.671 31.28 411.431 33.52C409.191 35.76 407.431 38.4 406.151 41.44C404.871 44.48 404.231 47.6 404.231 50.8C404.231 54.08 404.951 57.44 406.391 60.8C407.831 64.16 409.911 67.04 412.711 69.36C415.431 71.68 418.231 73.28 420.951 74.08C423.671 74.96 426.231 75.36 428.631 75.36C433.511 75.36 437.991 74.08 441.991 71.36C445.991 68.64 448.951 65.12 450.871 60.8H444.711C443.431 62.8 441.831 64.56 439.911 66.08C437.991 67.6 435.991 68.64 433.991 69.2C431.991 69.84 430.231 70.08 428.631 70.08C426.311 70.08 424.071 69.68 421.911 68.8C419.751 68 417.831 66.8 416.151 65.28C414.471 63.76 413.111 62 411.991 59.92C410.871 57.92 410.231 55.76 409.911 53.52H452.871L453.111 50.8ZM409.911 48.08C410.231 45.84 410.871 43.76 411.991 41.68C413.111 39.68 414.471 37.92 416.151 36.4C417.831 34.88 419.751 33.68 421.911 32.88C424.071 32.08 426.311 31.6 428.631 31.6C430.871 31.6 433.111 32.08 435.271 32.88C437.431 33.68 439.351 34.88 441.111 36.4C442.791 37.92 444.151 39.68 445.271 41.68C446.391 43.76 447.111 45.84 447.431 48.08H409.911Z" fill="black"/>
</svg>
